<svg xmlns="http://www.w3.org/2000/svg" width="20" height="20" viewBox="0 0 20 20">
    <g fill="none" fill-rule="evenodd">
        <g fill="#004254">
            <g>
                <path d="M3.706 11l4.643 4.648c.195.195.195.512 0 .707-.196.195-.513.195-.708 0l-5.495-5.502c-.09-.09-.146-.215-.146-.353 0-.138.056-.263.146-.353l5.495-5.5c.195-.196.512-.196.707-.001.196.195.196.512 0 .707L3.707 10H17.5c.276 0 .5.224.5.5s-.224.5-.5.5H3.706z" transform="translate(-24 -22) translate(24 22)"/>
            </g>
        </g>
    </g>
</svg>
