<?xml version="1.0" encoding="UTF-8"?>
<svg width="18px" height="18px" viewBox="0 0 18 18" version="1.1" xmlns="http://www.w3.org/2000/svg" xmlns:xlink="http://www.w3.org/1999/xlink">
    <title>03_ico / 20px / calendar</title>
    <g id="Propuesta-2" stroke="none" stroke-width="1" fill="none" fill-rule="evenodd">
        <g id="Plan-de-Recursos---Innominados-7" transform="translate(-593.000000, -392.000000)" fill="#004254">
            <g id="Group-3-Copy" transform="translate(334.000000, 32.000000)">
                <g id="Group-3" transform="translate(115.000000, 353.000000)">
                    <g id="03_ico-/-20px-/-calendar" transform="translate(143.000000, 6.000000)">
                        <path d="M14.5,1 C14.7761424,1 15,1.22385763 15,1.5 L15,3 L16.4361148,3 C17.3276335,3 17.6509198,3.09282561 17.9768457,3.2671327 C18.3027716,3.4414398 18.5585602,3.69722837 18.7328673,4.0231543 C18.9071744,4.34908022 19,4.67236646 19,5.5638852 L19,16.4361148 C19,17.3276335 18.9071744,17.6509198 18.7328673,17.9768457 C18.5585602,18.3027716 18.3027716,18.5585602 17.9768457,18.7328673 C17.6509198,18.9071744 17.3276335,19 16.4361148,19 L3.5638852,19 C2.67236646,19 2.34908022,18.9071744 2.0231543,18.7328673 C1.69722837,18.5585602 1.4414398,18.3027716 1.2671327,17.9768457 C1.09282561,17.6509198 1,17.3276335 1,16.4361148 L1,5.5638852 C1,4.67236646 1.09282561,4.34908022 1.2671327,4.0231543 C1.4414398,3.69722837 1.69722837,3.4414398 2.0231543,3.2671327 C2.34908022,3.09282561 2.67236646,3 3.5638852,3 L5,3 L5,1.5 C5,1.22385763 5.22385763,1 5.5,1 C5.77614237,1 6,1.22385763 6,1.5 L6,3 L14,3 L14,1.5 C14,1.22385763 14.2238576,1 14.5,1 Z M18,8 L2,8 L2,16.4361148 C2,17.0979667 2.03892159,17.2995193 2.1489459,17.5052468 C2.2300532,17.6569043 2.3430957,17.7699468 2.49475316,17.8510541 C2.70048072,17.9610784 2.90203328,18 3.5638852,18 L16.4361148,18 C17.0979667,18 17.2995193,17.9610784 17.5052468,17.8510541 C17.6569043,17.7699468 17.7699468,17.6569043 17.8510541,17.5052468 C17.9610784,17.2995193 18,17.0979667 18,16.4361148 L18,8 Z M16.6055565,4.00098918 L3.5638852,4 C2.90203328,4 2.70048072,4.03892159 2.49475316,4.1489459 C2.3430957,4.2300532 2.2300532,4.3430957 2.1489459,4.49475316 C2.0489238,4.68177822 2.00766428,4.86535286 2.00098918,5.39444355 L2,7 L18,7 L18,5.5638852 C18,4.90203328 17.9610784,4.70048072 17.8510541,4.49475316 C17.7699468,4.3430957 17.6569043,4.2300532 17.5052468,4.1489459 C17.3182218,4.0489238 17.1346471,4.00766428 16.6055565,4.00098918 Z" id="calendar"></path>
                    </g>
                </g>
            </g>
        </g>
    </g>
</svg>