<?xml version="1.0" encoding="UTF-8"?>
<svg width="21px" height="16px" viewBox="0 0 21 16" version="1.1" xmlns="http://www.w3.org/2000/svg" xmlns:xlink="http://www.w3.org/1999/xlink">
    <title>03_ico / 20px / catalog</title>
    <g id="Propuesta-2" stroke="none" stroke-width="1" fill="none" fill-rule="evenodd">
        <g id="03_ico-/-20px-/-catalog" transform="translate(0.088020, -2.000000)" fill="#FFFFFF">
            <path d="M19,2 C19.5522847,2 20,2.44771525 20,3 L20,3 L20,17 C20,17.5522847 19.5522847,18 19,18 L19,18 L3,18 C2.44771525,18 2,17.5522847 2,17 L2,17 L2,13.699 L1,13.7 C0.723857625,13.7 0.5,13.4761424 0.5,13.2 C0.5,12.9545401 0.676875161,12.7503916 0.910124368,12.7080557 L1,12.7 L2,12.699 L2,6.699 L1,6.7 C0.723857625,6.7 0.5,6.47614237 0.5,6.2 C0.5,5.95454011 0.676875161,5.75039163 0.910124368,5.70805567 L1,5.7 L2,5.699 L2,3 C2,2.48716416 2.38604019,2.06449284 2.88337887,2.00672773 L3,2 Z M19,3 L3,3 L3,5.699 L4.13222964,5.7 C4.40837201,5.7 4.63222964,5.92385763 4.63222964,6.2 C4.63222964,6.44545989 4.45535448,6.64960837 4.22210527,6.69194433 L4.13222964,6.7 L3,6.699 L3,12.699 L4.13222964,12.7 C4.40837201,12.7 4.63222964,12.9238576 4.63222964,13.2 C4.63222964,13.4454599 4.45535448,13.6496084 4.22210527,13.6919443 L4.13222964,13.7 L3,13.699 L3,17 L19,17 L19,3 Z M11,10.5 C11.5128358,10.5 11.9355072,10.8860402 11.9932723,11.3833789 L12,11.5 L12,13.5 C12,14.0128358 11.6139598,14.4355072 11.1166211,14.4932723 L11,14.5 L9,14.5 C8.48716416,14.5 8.06449284,14.1139598 8.00672773,13.6166211 L8,13.5 L8,11.5 C8,10.9871642 8.38604019,10.5644928 8.88337887,10.5067277 L9,10.5 L11,10.5 Z M16,10.5 C16.5128358,10.5 16.9355072,10.8860402 16.9932723,11.3833789 L17,11.5 L17,13.5 C17,14.0128358 16.6139598,14.4355072 16.1166211,14.4932723 L16,14.5 L14,14.5 C13.4871642,14.5 13.0644928,14.1139598 13.0067277,13.6166211 L13,13.5 L13,11.5 C13,10.9871642 13.3860402,10.5644928 13.8833789,10.5067277 L14,10.5 L16,10.5 Z M11,11.5 L9,11.5 L9,13.5 L11,13.5 L11,11.5 Z M16,11.5 L14,11.5 L14,13.5 L16,13.5 L16,11.5 Z M11,5.5 C11.5128358,5.5 11.9355072,5.88604019 11.9932723,6.38337887 L12,6.5 L12,8.5 C12,9.01283584 11.6139598,9.43550716 11.1166211,9.49327227 L11,9.5 L9,9.5 C8.48716416,9.5 8.06449284,9.11395981 8.00672773,8.61662113 L8,8.5 L8,6.5 C8,5.98716416 8.38604019,5.56449284 8.88337887,5.50672773 L9,5.5 L11,5.5 Z M16,5.5 C16.5128358,5.5 16.9355072,5.88604019 16.9932723,6.38337887 L17,6.5 L17,8.5 C17,9.01283584 16.6139598,9.43550716 16.1166211,9.49327227 L16,9.5 L14,9.5 C13.4871642,9.5 13.0644928,9.11395981 13.0067277,8.61662113 L13,8.5 L13,6.5 C13,5.98716416 13.3860402,5.56449284 13.8833789,5.50672773 L14,5.5 L16,5.5 Z M16,6.5 L14,6.5 L14,8.5 L16,8.5 L16,6.5 Z" id="Combined-Shape"></path>
        </g>
    </g>
</svg>