<?xml version="1.0" encoding="UTF-8"?>
<svg width="16px" height="18px" viewBox="0 0 16 18" version="1.1" xmlns="http://www.w3.org/2000/svg" xmlns:xlink="http://www.w3.org/1999/xlink">
    <title>03_ico / 20px / chart-bar</title>
    <g id="Propuesta-2" stroke="none" stroke-width="1" fill="none" fill-rule="evenodd">
        <g id="03_ico-/-20px-/-chart-bar" transform="translate(-2.000000, -1.000000)" fill="#FFFFFF">
            <path d="M17.5,18 C17.7761424,18 18,18.2238576 18,18.5 C18,18.7761424 17.7761424,19 17.5,19 L2.5,19 C2.22385763,19 2,18.7761424 2,18.5 C2,18.2238576 2.22385763,18 2.5,18 L17.5,18 Z M4,11 C4.55228475,11 5,11.4477153 5,12 L5,16 C5,16.5522847 4.55228475,17 4,17 C3.44771525,17 3,16.5522847 3,16 L3,12 C3,11.4477153 3.44771525,11 4,11 Z M8,9 C8.55228475,9 9,9.44771525 9,10 L9,16 C9,16.5522847 8.55228475,17 8,17 C7.44771525,17 7,16.5522847 7,16 L7,10 C7,9.44771525 7.44771525,9 8,9 Z M12,5 C12.5522847,5 13,5.44771525 13,6 L13,16 C13,16.5522847 12.5522847,17 12,17 C11.4477153,17 11,16.5522847 11,16 L11,6 C11,5.44771525 11.4477153,5 12,5 Z M16,1 C16.5522847,1 17,1.44771525 17,2 L17,16 C17,16.5522847 16.5522847,17 16,17 C15.4477153,17 15,16.5522847 15,16 L15,2 C15,1.44771525 15.4477153,1 16,1 Z" id="chart-bar"></path>
        </g>
    </g>
</svg>