<svg width="16" height="18" viewBox="0 0 16 18" fill="none" xmlns="http://www.w3.org/2000/svg">
<path fill-rule="evenodd" clip-rule="evenodd" d="M15.5 17C15.7761 17 16 17.2239 16 17.5C16 17.7761 15.7761 18 15.5 18H0.5C0.223858 18 0 17.7761 0 17.5C0 17.2239 0.223858 17 0.5 17H15.5ZM2 10C2.55228 10 3 10.4477 3 11V15C3 15.5523 2.55228 16 2 16C1.44772 16 1 15.5523 1 15V11C1 10.4477 1.44772 10 2 10ZM6 8C6.55228 8 7 8.44772 7 9V15C7 15.5523 6.55228 16 6 16C5.44772 16 5 15.5523 5 15V9C5 8.44772 5.44772 8 6 8ZM10 4C10.5523 4 11 4.44772 11 5V15C11 15.5523 10.5523 16 10 16C9.44772 16 9 15.5523 9 15V5C9 4.44772 9.44772 4 10 4ZM14 0C14.5523 0 15 0.447715 15 1V15C15 15.5523 14.5523 16 14 16C13.4477 16 13 15.5523 13 15V1C13 0.447715 13.4477 0 14 0Z" fill="#004254"/>
</svg>
