<svg width="18" height="18" viewBox="0 0 18 18" fill="none" xmlns="http://www.w3.org/2000/svg">
<g opacity="0.75">
<path d="M15.8705 15.7272C15.9018 15.7586 15.908 15.805 15.8901 15.8413L15.8597 15.8796C15.8196 15.908 15.7642 15.9044 15.728 15.8686C15.7279 15.8685 15.7278 15.8684 15.7277 15.8683L9.55403 9.69641L9.20052 9.34301L8.84702 9.69641L2.67186 15.8698C2.67177 15.8699 2.67167 15.87 2.67158 15.8701C2.6307 15.9105 2.56772 15.909 2.52968 15.8715C2.48933 15.8303 2.49109 15.7667 2.52908 15.7287C2.52909 15.7287 2.5291 15.7287 2.52911 15.7287L8.70805 9.55444L9.06201 9.20075L8.70805 8.84706L2.5304 2.67414C2.53025 2.67399 2.5301 2.67384 2.52995 2.67369C2.49798 2.64109 2.49264 2.59468 2.50904 2.5597L2.54063 2.52066C2.57963 2.49217 2.63567 2.49546 2.67073 2.53053L2.6709 2.5307L8.84556 8.70213L9.19902 9.05541L9.55248 8.70213L15.7277 2.53016C15.7278 2.53006 15.7279 2.52996 15.728 2.52987C15.7689 2.48953 15.8318 2.49102 15.8699 2.52848C15.9102 2.56969 15.9084 2.63322 15.8705 2.67126C15.8705 2.67129 15.8705 2.67132 15.8704 2.67135L9.69149 8.84556L9.33753 9.19925L9.69149 9.55294L15.8704 15.7272C15.8705 15.7272 15.8705 15.7272 15.8705 15.7272Z" fill="white" stroke="white"/>
</g>
</svg>
