<svg width="21" height="22" viewBox="0 0 21 22" fill="none" xmlns="http://www.w3.org/2000/svg">
<path fill-rule="evenodd" clip-rule="evenodd" d="M18.5 3.76001C18.5 3.48401 18.724 3.26001 19 3.26001C19.276 3.26001 19.5 3.48401 19.5 3.76001V18.76C19.5 19.036 19.276 19.26 19 19.26C18.724 19.26 18.5 19.036 18.5 18.76V3.76001ZM2.5 11.76C2.5 11.484 2.724 11.26 3 11.26H14.787L9.647 6.11301C9.451 5.91801 9.451 5.60101 9.647 5.40601C9.842 5.21101 10.159 5.21101 10.354 5.40601L16.31 11.369C16.426 11.46 16.5 11.602 16.5 11.761C16.5 11.917 16.428 12.057 16.316 12.149L10.354 18.113C10.158 18.309 9.842 18.309 9.647 18.113C9.451 17.918 9.451 17.602 9.647 17.407L14.788 12.26H3C2.724 12.26 2.5 12.036 2.5 11.76Z" fill="#004254"/>
</svg>
