<svg xmlns="http://www.w3.org/2000/svg" width="21" height="20" viewBox="0 0 21 20">
    <g fill="none" fill-rule="evenodd">
        <g fill="#004254">
            <g>
                <g>
                    <g>
                        <path d="M17.5 18c.276 0 .5.224.5.5s-.224.5-.5.5h-15c-.276 0-.5-.224-.5-.5s.224-.5.5-.5h15zm-8-16c.276 0 .5.224.5.5v11.787l5.147-5.14c.195-.196.512-.196.707 0 .195.195.195.512 0 .707L9.891 15.81c-.091.116-.233.19-.392.19-.156 0-.296-.072-.388-.184L3.147 9.854c-.196-.196-.196-.512 0-.707.195-.196.511-.196.706 0L9 14.288V2.5c0-.276.224-.5.5-.5z" transform="translate(-555 -608) translate(88 152) translate(457.24 450) translate(10 6)"/>
                    </g>
                </g>
            </g>
        </g>
    </g>
</svg>
