<?xml version="1.0" encoding="UTF-8"?>
<svg width="19px" height="18px" viewBox="0 0 19 18" version="1.1" xmlns="http://www.w3.org/2000/svg" xmlns:xlink="http://www.w3.org/1999/xlink">
    <title>edit</title>
    <g id="Page-1" stroke="none" stroke-width="1" fill="none" fill-rule="evenodd">
        <g id="03_ico-/-20px-/-edit" fill="#6E767D">
            <path d="M7.5,17 C7.77614237,17 8,17.2238576 8,17.5 C8,17.7761424 7.77614237,18 7.5,18 L0.5,18 C0.223857625,18 3.38176876e-17,17.7761424 0,17.5 C-3.38176876e-17,17.2238576 0.223857625,17 0.5,17 L7.5,17 Z M18.1625931,0.837406894 C19.2791356,1.95394942 19.2791356,3.76422253 18.1625931,4.88076506 L7.04335816,16 L3,16 L3,11.9566418 L14.1192349,0.837406894 C15.2357775,-0.279135631 17.0460506,-0.279135631 18.1625931,0.837406894 Z M12.339,4.046 L4.01083954,12.3753453 L4.01083954,14.9891605 L6.62465471,14.9891605 L14.953,6.66 L12.339,4.046 Z M14.8340064,1.55217839 L13.046,3.339 L15.66,5.953 L17.4478216,4.16599356 C18.1696067,3.44420843 18.1696067,2.27396352 17.4478216,1.55217839 C16.7260365,0.830393258 15.5557916,0.830393258 14.8340064,1.55217839 Z" id="edit"></path>
        </g>
    </g>
</svg>