<svg width="20" height="20" viewBox="0 0 20 20" fill="none" xmlns="http://www.w3.org/2000/svg">
<path fill-rule="evenodd" clip-rule="evenodd" d="M15.77 3.5C16.9408 3.5 17.89 4.44916 17.89 5.62V15.34C17.89 16.5108 16.9408 17.46 15.77 17.46H3.62C2.44916 17.46 1.5 16.5108 1.5 15.34V5.62C1.5 4.44916 2.44916 3.5 3.62 3.5H15.77ZM16.89 7.147L9.695 11.8667L2.5 7.147V15.34C2.5 15.9173 2.93681 16.3926 3.49796 16.4534L3.62 16.46H15.77C16.3886 16.46 16.89 15.9586 16.89 15.34V7.147ZM15.77 4.5H3.62C3.00144 4.5 2.5 5.00144 2.5 5.62V5.951L9.695 10.67L16.89 5.95V5.62C16.89 5.04268 16.4532 4.56738 15.892 4.50657L15.77 4.5Z" fill="#004254"/>
</svg>
