<?xml version="1.0" encoding="UTF-8"?>
<svg width="19px" height="11px" viewBox="0 0 19 11" version="1.1" xmlns="http://www.w3.org/2000/svg" xmlns:xlink="http://www.w3.org/1999/xlink">
    <title>03_ico / 20px / overflow-menu copy 3</title>
    <g id="Propuesta-2" stroke="none" stroke-width="1" fill="none" fill-rule="evenodd">
        <g id="Plan-de-Recursos---Proyectos" transform="translate(-1245.000000, -799.000000)" fill="#004254">
            <g id="Group-3-Copy-3" transform="translate(88.000000, 643.000000)">
                <g id="Group-8" transform="translate(1140.000000, 42.000000)">
                    <g id="03_ico-/-20px-/-overflow-menu-copy-8" transform="translate(16.013622, 109.000000)">
                        <path d="M10.0871,8.6913 C10.8431,8.6913 11.4571,9.3163 11.4571,10.0843 C11.4571,10.8523 10.8431,11.4773 10.0871,11.4773 C9.3311,11.4773 8.7171,10.8523 8.7171,10.0843 C8.7171,9.3163 9.3311,8.6913 10.0871,8.6913 M8.541,5.1313 C9.658,4.9433 10.777,4.9573 11.859,5.1743 C13.52,5.5063 15.22,6.3193 16.912,7.5893 C17.72,8.1953 18.327,8.7343 18.824,9.2873 C18.983,9.4443 19.087,9.6293 19.136,9.8323 L19.136,9.8323 L19.173,9.9913 L19.134,10.3793 L19.076,10.5153 C19.02,10.6493 18.937,10.7713 18.831,10.8763 C18.636,11.0933 18.431,11.2873 18.239,11.4683 C17.056,12.5753 15.792,13.4573 14.482,14.0883 C13.474,14.5733 12.537,14.8833 11.62,15.0393 C11.108,15.1253 10.587,15.1683 10.072,15.1683 C9.478,15.1683 8.883,15.1103 8.303,14.9943 C6.639,14.6613 4.938,13.8483 3.248,12.5793 C2.433,11.9683 1.82,11.4233 1.319,10.8633 C0.895,10.3903 0.894,9.7793 1.316,9.3083 C1.496,9.1063 1.689,8.9183 1.923,8.7003 C3.106,7.5933 4.37,6.7113 5.68,6.0803 C6.689,5.5953 7.624,5.2843 8.541,5.1313 Z M11.635,6.1573 C10.685,5.9653 9.718,5.9533 8.737,6.1213 C7.925,6.2583 7.085,6.5433 6.167,6.9913 C4.945,7.5893 3.759,8.4313 2.644,9.4923 C2.422,9.7033 2.254,9.8693 2.101,10.0433 C2.074,10.0733 2.072,10.0843 2.072,10.0853 C2.072,10.0853 2.075,10.0963 2.1,10.1253 C2.557,10.6433 3.127,11.1563 3.895,11.7413 C5.468,12.9403 7.029,13.7043 8.533,14.0103 C9.468,14.2013 10.455,14.2163 11.433,14.0493 C12.243,13.9103 13.084,13.6253 14.002,13.1783 C15.223,12.5803 16.408,11.7383 17.527,10.6763 C17.7,10.5103 17.897,10.3213 18.068,10.1253 L18.068,10.1253 L18.1,10.0793 L18.071,10.0463 C17.615,9.5293 17.045,9.0153 16.274,8.4273 C14.7,7.2273 13.14,6.4633 11.635,6.1573 Z M10.0871,7.7263 C11.3741,7.7263 12.4221,8.7843 12.4221,10.0843 C12.4221,11.3843 11.3741,12.4413 10.0871,12.4413 C8.8001,12.4413 7.7521,11.3843 7.7521,10.0843 C7.7521,8.7843 8.8001,7.7263 10.0871,7.7263 Z" id="Fill-3"></path>
                    </g>
                </g>
            </g>
        </g>
    </g>
</svg>