<?xml version="1.0" encoding="UTF-8"?>
<svg width="20px" height="20px" viewBox="0 0 20 20" version="1.1" xmlns="http://www.w3.org/2000/svg" xmlns:xlink="http://www.w3.org/1999/xlink">
    <title>Group 2</title>
    <g id="Icono-herramienta" stroke="none" stroke-width="1" fill="none" fill-rule="evenodd">
        <g id="Group-2">
            <rect id="Rectangle" x="0" y="0" width="20" height="20"></rect>
            <g id="03_ico-/-20px-/-note" transform="translate(3.000000, 1.000000)" fill="#FFFFFF">
                <path d="M9.35,0 L9.349,0.016 L13.975,4.6 L14,4.6 L13.999,4.624 L14,4.62592345 L14,15.4361148 C14,16.3276335 13.9278023,16.6509198 13.7922301,16.9768457 C13.6566579,17.3027716 13.4577113,17.5585602 13.2042133,17.7328673 C12.9507154,17.9071744 12.6992705,18 12.0058671,18 L1.99413293,18 C1.30072947,18 1.04928462,17.9071744 0.795786675,17.7328673 C0.542288733,17.5585602 0.343342064,17.3027716 0.207769881,16.9768457 C0.0721976976,16.6509198 0,16.3276335 0,15.4361148 L0,2.5638852 C0,1.67236646 0.0721976976,1.34908022 0.207769881,1.0231543 C0.343342064,0.697228371 0.542288733,0.441439796 0.795786675,0.267132704 C1.04928462,0.0928256111 1.30072947,0 1.99413293,0 L9.35,0 Z M8.349,1 L2.1729139,1 C1.67652496,1 1.52536054,1.03892159 1.37106487,1.1489459 C1.25732178,1.2300532 1.1725399,1.3430957 1.11170943,1.49475316 C1.03669285,1.68177822 1.00574821,1.86535286 1.00074188,2.39444355 L1,15.4361148 C1,16.0979667 1.0291912,16.2995193 1.11170943,16.5052468 C1.1725399,16.6569043 1.25732178,16.7699468 1.37106487,16.8510541 C1.52536054,16.9610784 1.67652496,17 2.1729139,17 L11.8270861,17 C12.323475,17 12.4746395,16.9610784 12.6289351,16.8510541 C12.7426782,16.7699468 12.8274601,16.6569043 12.8882906,16.5052468 C12.9708088,16.2995193 13,16.0979667 13,15.4361148 L13,5.6 L8.35,5.6 L8.349,1 Z M9.349,1.404 L9.349,4.6 L12.588,4.6 L9.349,1.404 Z" id="note"></path>
            </g>
        </g>
    </g>
</svg>
