<?xml version="1.0" encoding="UTF-8"?>
<svg width="17px" height="18px" viewBox="0 0 17 18" version="1.1" xmlns="http://www.w3.org/2000/svg" xmlns:xlink="http://www.w3.org/1999/xlink">
    <title>03_ico / 20px / carousel-chevron-right</title>
    <defs>
        <path d="M16.2676231,-2.67671142e-06 L0.732204149,-2.67671142e-06 C0.458201142,-0.000532688532 0.207002882,0.157585877 0.0817493019,0.409397712 C-0.0452319365,0.664600318 -0.0229454243,0.971914275 0.139279561,1.20498742 L5.83080276,8.4871158 C5.83270317,8.48997121 5.83477634,8.49264817 5.83667675,8.49550359 C6.04347474,8.7839004 6.15525278,9.13315322 6.15594383,9.49222153 L6.15594383,16.2445618 C6.15473448,16.4446193 6.23075045,16.6366459 6.3672337,16.7785243 C6.5037169,16.9204027 6.689265,16.9999973 6.8827602,16.9999973 C6.98123542,16.9999973 7.07850132,16.9796525 7.16937494,16.9407475 L10.3675742,15.6809745 C10.654189,15.590672 10.8444017,15.3113769 10.8444017,14.9749734 L10.8444017,9.49222153 C10.84492,9.13333167 10.9568708,8.7839004 11.163496,8.49550359 C11.1653964,8.49264817 11.1674696,8.48997121 11.16937,8.4871158 L16.8607204,1.20463052 C17.0229454,0.971735777 17.0452319,0.664600318 16.9182507,0.409397712 C16.7929971,0.157585877 16.5417989,-0.000532688532 16.2676231,-2.67671142e-06 Z M10.450328,7.95422418 C10.132443,8.39984722 9.96054325,8.93862811 9.95950669,9.49222153 L9.95950669,14.8639692 L7.04049334,16.0136303 L7.04049334,9.49222153 C7.03945673,8.93862811 6.86755701,8.39984722 6.54949923,7.95422418 L1.02400186,0.913735191 L15.9759982,0.913735191 L10.450328,7.95422418 Z" id="path-1"></path>
    </defs>
    <g id="Propuesta-2" stroke="none" stroke-width="1" fill="none" fill-rule="evenodd">
        <g id="Plan-de-Recursos---Proyectos" transform="translate(-1245.000000, -224.000000)">
            <g id="01_Components-/-table-/-filters-/-collapse" transform="translate(89.000000, 213.000000)">
                <g id="01_Components/Button/medium/link_btn/icon+text/enable" transform="translate(1155.000000, 9.875000)">
                    <g id="↳-🎨Color" transform="translate(1.000000, 2.000000)">
                        <mask id="mask-2" fill="white">
                            <use xlink:href="#path-1"></use>
                        </mask>
                        <use id="Mask" fill="#000000" fill-rule="nonzero" xlink:href="#path-1"></use>
                        <g mask="url(#mask-2)" fill="#004254" id="Rectangle">
                            <g transform="translate(-1.000000, -2.000000)">
                                <rect x="0" y="0" width="20" height="20"></rect>
                            </g>
                        </g>
                    </g>
                </g>
            </g>
        </g>
    </g>
</svg>