<?xml version="1.0" encoding="UTF-8"?>
<svg width="18px" height="18px" viewBox="0 0 18 18" version="1.1" xmlns="http://www.w3.org/2000/svg" xmlns:xlink="http://www.w3.org/1999/xlink">
    <title>03_ico / 20px / flag</title>
    <g id="Propuesta-2" stroke="none" stroke-width="1" fill="none" fill-rule="evenodd">
        <g id="Notificaciones" transform="translate(-1027.000000, -425.000000)" fill="#004254">
            <g id="Group-3" transform="translate(852.000000, 0.000000)">
                <g id="Group" transform="translate(174.000000, 424.109682)">
                    <g id="Group" transform="translate(1.000000, 1.000000)">
                        <path d="M1,0.5 C1.24545989,0.5 1.44960837,0.676875161 1.49194433,0.910124368 L1.5,1 L1.5,17 C1.5,17.2761424 1.27614237,17.5 1,17.5 C0.754540111,17.5 0.55039163,17.3231248 0.508055669,17.0898756 L0.5,17 L0.5,1 C0.5,0.723857625 0.723857625,0.5 1,0.5 Z M16.6914173,0.846162179 C17.1032863,0.846162179 17.3385189,1.31623531 17.0916173,1.6458953 L13.06923,6.34616218 L17.0916173,11.0464291 C17.3385189,11.3760891 17.1032863,11.8461622 16.6914173,11.8461622 L4,11.8461622 C3.72385763,11.8461622 3.5,11.6223046 3.5,11.3461622 L3.5,1.34616218 C3.5,1.0700198 3.72385763,0.846162179 4,0.846162179 L16.6914173,0.846162179 Z M15.6922505,1.84616218 L4.5,1.84616218 L4.5,10.8461622 L15.6922505,10.8461622 L12.0443424,6.6458953 C11.9112758,6.46822634 11.9112758,6.22409802 12.0443424,6.04642906 L15.6922505,1.84616218 Z" id="Combined-Shape"></path>
                    </g>
                </g>
            </g>
        </g>
    </g>
</svg>