<svg width="14" height="14" viewBox="0 0 14 14" fill="none" xmlns="http://www.w3.org/2000/svg">
<mask id="mask0" style="mask-type:alpha" maskUnits="userSpaceOnUse" x="3" y="0" width="8" height="14">
<path d="M4.10453 0.894672L3.5984 1.4345C3.34614 1.70355 3.34592 2.12217 3.59788 2.3915L7.90925 7.00001L3.59788 11.6085C3.34592 11.8778 3.34614 12.2965 3.5984 12.5655L4.10453 13.1053C4.36895 13.3874 4.81193 13.4016 5.09396 13.1372C5.10493 13.1269 5.11556 13.1163 5.12584 13.1053L10.85 7.00001L5.12584 0.894672C4.86142 0.612643 4.41844 0.598369 4.13641 0.86279C4.12544 0.873072 4.11481 0.883705 4.10453 0.894672Z" fill="white"/>
</mask>
<g mask="url(#mask0)">
<path d="M4.10453 0.894672L3.5984 1.4345C3.34614 1.70355 3.34592 2.12217 3.59788 2.3915L7.90925 7.00001L3.59788 11.6085C3.34592 11.8778 3.34614 12.2965 3.5984 12.5655L4.10453 13.1053C4.36895 13.3874 4.81193 13.4016 5.09396 13.1372C5.10493 13.1269 5.11556 13.1163 5.12584 13.1053L10.85 7.00001L5.12584 0.894672C4.86142 0.612643 4.41844 0.598369 4.13641 0.86279C4.12544 0.873072 4.11481 0.883705 4.10453 0.894672Z" fill="black" fill-opacity="0.7"/>
<path d="M14 1.52588e-05L0 1.52588e-05L0 14L14 14L14 1.52588e-05Z" fill="#004254"/>
</g>
</svg>
