<svg width="14" height="14" viewBox="0 0 14 14" fill="none" xmlns="http://www.w3.org/2000/svg">
<mask id="mask0" style="mask-type:alpha" maskUnits="userSpaceOnUse" x="3" y="0" width="8" height="14">
<path d="M9.89547 13.1053L10.4016 12.5655C10.6539 12.2964 10.6541 11.8778 10.4021 11.6085L6.09075 6.99999L10.4021 2.39149C10.6541 2.12216 10.6539 1.70354 10.4016 1.43449L9.89547 0.894657C9.63105 0.612628 9.18807 0.598353 8.90604 0.862775C8.89507 0.873057 8.88444 0.88369 8.87416 0.894657L3.15 6.99999L8.87416 13.1053C9.13858 13.3874 9.58156 13.4016 9.86359 13.1372C9.87456 13.1269 9.88519 13.1163 9.89547 13.1053Z" fill="white"/>
</mask>
<g mask="url(#mask0)">
<path d="M9.89547 13.1053L10.4016 12.5655C10.6539 12.2964 10.6541 11.8778 10.4021 11.6085L6.09075 6.99999L10.4021 2.39149C10.6541 2.12216 10.6539 1.70354 10.4016 1.43449L9.89547 0.894657C9.63105 0.612628 9.18807 0.598353 8.90604 0.862775C8.89507 0.873057 8.88444 0.88369 8.87416 0.894657L3.15 6.99999L8.87416 13.1053C9.13858 13.3874 9.58156 13.4016 9.86359 13.1372C9.87456 13.1269 9.88519 13.1163 9.89547 13.1053Z" fill="black" fill-opacity="0.7"/>
<path d="M0 14L14 14L14 -1.52588e-05L0 -1.52588e-05L0 14Z" fill="#004254"/>
</g>
</svg>
