<svg xmlns="http://www.w3.org/2000/svg" width="20" height="20" viewBox="0 0 20 20">
    <g fill="none" fill-rule="evenodd">
        <g fill="#FFF">
            <g>
                <g>
                    <g>
                        <g>
                            <path d="M5.116 13.18c.177-.212.492-.24.704-.064.212.177.24.492.064.704l-2.5 3c-.163.196-.449.238-.661.096l-1.5-1c-.23-.153-.292-.464-.139-.693.153-.23.464-.292.693-.139l1.127.75zM18.5 15c.276 0 .5.224.5.5s-.224.5-.5.5h-10c-.276 0-.5-.224-.5-.5s.224-.5.5-.5h10zM5.116 8.18c.177-.212.492-.24.704-.064.212.177.24.492.064.704l-2.5 3c-.163.196-.449.238-.661.096l-1.5-1c-.23-.153-.292-.464-.139-.693.153-.23.464-.292.693-.139l1.127.75zM18.5 10c.276 0 .5.224.5.5s-.224.5-.5.5h-10c-.276 0-.5-.224-.5-.5s.224-.5.5-.5h10zM5.116 3.18c.177-.212.492-.24.704-.064.212.177.24.492.064.704l-2.5 3c-.163.196-.449.238-.661.096l-1.5-1c-.23-.153-.292-.464-.139-.693.153-.23.464-.292.693-.139l1.127.75zM18.5 5c.276 0 .5.224.5.5s-.224.5-.5.5h-10c-.276 0-.5-.224-.5-.5s.224-.5.5-.5h10z" transform="translate(-22 -142) translate(0 64) translate(4 8) translate(4 56) translate(14 14)"/>
                        </g>
                    </g>
                </g>
            </g>
        </g>
    </g>
</svg>
