<svg width="20" height="20" viewBox="0 0 20 20" fill="none" xmlns="http://www.w3.org/2000/svg">
<path fill-rule="evenodd" clip-rule="evenodd" d="M5.116 13.18C5.293 12.968 5.608 12.94 5.82 13.116C6.032 13.293 6.06 13.608 5.884 13.82L3.384 16.82C3.221 17.016 2.935 17.058 2.723 16.916L1.223 15.916C0.993002 15.763 0.931002 15.452 1.084 15.223C1.237 14.993 1.548 14.931 1.777 15.084L2.904 15.834L5.116 13.18ZM18.5 15C18.776 15 19 15.224 19 15.5C19 15.776 18.776 16 18.5 16H8.5C8.224 16 8 15.776 8 15.5C8 15.224 8.224 15 8.5 15H18.5ZM5.116 8.18003C5.293 7.96803 5.608 7.94003 5.82 8.11603C6.032 8.29303 6.06 8.60803 5.884 8.82003L3.384 11.82C3.221 12.016 2.935 12.058 2.723 11.916L1.223 10.916C0.993002 10.763 0.931002 10.452 1.084 10.223C1.237 9.99303 1.548 9.93103 1.777 10.084L2.904 10.834L5.116 8.18003ZM18.5 10C18.776 10 19 10.224 19 10.5C19 10.776 18.776 11 18.5 11H8.5C8.224 11 8 10.776 8 10.5C8 10.224 8.224 10 8.5 10H18.5ZM5.116 3.18003C5.293 2.96803 5.608 2.94003 5.82 3.11603C6.032 3.29303 6.06 3.60803 5.884 3.82003L3.384 6.82003C3.221 7.01603 2.935 7.05803 2.723 6.91603L1.223 5.91603C0.993002 5.76303 0.931002 5.45203 1.084 5.22303C1.237 4.99303 1.548 4.93103 1.777 5.08403L2.904 5.83403L5.116 3.18003ZM18.5 5.00003C18.776 5.00003 19 5.22403 19 5.50003C19 5.77603 18.776 6.00003 18.5 6.00003H8.5C8.224 6.00003 8 5.77603 8 5.50003C8 5.22403 8.224 5.00003 8.5 5.00003H18.5Z" fill="#004254"/>
</svg>
