<?xml version="1.0" encoding="UTF-8"?>
<svg width="20px" height="20px" viewBox="0 0 20 20" version="1.1" xmlns="http://www.w3.org/2000/svg" xmlns:xlink="http://www.w3.org/1999/xlink">
    <title>camapana</title>
    <g id="camapana" stroke="none" stroke-width="1" fill="none" fill-rule="evenodd">
        <g id="notification" fill="#FFFFFF">
            <path d="M10.0000002,0 C10.9444948,0 11.5015823,0.559205592 11.5000002,1.50380057 L11.5000002,1.50380057 L11.5008652,2.16127872 C14.6456138,2.84827369 17,5.64918867 17,9 L17,13 L18.8,15.4 C19.1313708,15.8418278 19.0418278,16.4686292 18.6,16.8 C18.4269038,16.9298221 18.2163702,17 18,17 L13,17 C13,18.6568542 11.6568542,20 10,20 C8.34314575,20 7,18.6568542 7,17 L2,17 C1.44771525,17 1,16.5522847 1,16 C1,15.7836298 1.07017787,15.5730962 1.2,15.4 L3,13 L3,9 C3,5.64883386 5.35488478,2.84768054 8.50013381,2.16106056 L8.50000015,1.50463776 C8.49842049,0.559205592 9.05550805,0 10.0000002,0 Z M12,17 L8,17 C8,18.1045695 8.8954305,19 10,19 C11.1045695,19 12,18.1045695 12,17 Z M10,3 C6.6862915,3 4,5.6862915 4,9 L4,13 C4,13.2163702 3.92982213,13.4269038 3.8,13.6 L2,16 L18,16 L16.2,13.6 C16.0701779,13.4269038 16,13.2163702 16,13 L16,9 C16,5.6862915 13.3137085,3 10,3 Z M10.0000002,1 C9.6089223,1 9.49934413,1.10999479 9.50000015,1.50380057 L9.50000015,1.50380057 L9.50061334,2.01753877 C9.66556358,2.00591185 9.83209139,2 10,2 C10.1682499,2 10.3351134,2.00593591 10.5003924,2.01760973 L10.5000002,1.50296337 C10.5006587,1.10999479 10.3910805,1 10.0000002,1 Z"></path>
        </g>
    </g>
</svg>