<svg width="21" height="20" viewBox="0 0 21 20" fill="none" xmlns="http://www.w3.org/2000/svg">
<path fill-rule="evenodd" clip-rule="evenodd" d="M3.25999 2C2.98399 2 2.75999 1.776 2.75999 1.5C2.75999 1.224 2.98399 1 3.25999 1L18.26 1C18.536 1 18.76 1.224 18.76 1.5C18.76 1.776 18.536 2 18.26 2L3.25999 2ZM11.26 18C10.984 18 10.76 17.776 10.76 17.5L10.76 5.713L5.61299 10.853C5.41799 11.049 5.10099 11.049 4.90599 10.853C4.71099 10.658 4.71099 10.341 4.90599 10.146L10.869 4.19C10.96 4.074 11.102 4 11.261 4C11.417 4 11.557 4.072 11.649 4.184L17.613 10.146C17.809 10.342 17.809 10.658 17.613 10.853C17.418 11.049 17.102 11.049 16.907 10.853L11.76 5.712L11.76 17.5C11.76 17.776 11.536 18 11.26 18Z" fill="#004254"/>
</svg>
