<?xml version="1.0" encoding="UTF-8"?>
<svg width="20px" height="17px" viewBox="0 0 20 17" version="1.1" xmlns="http://www.w3.org/2000/svg" xmlns:xlink="http://www.w3.org/1999/xlink">
    <title>03_ico / 20px / user role</title>
    <g id="Propuesta-2" stroke="none" stroke-width="1" fill="none" fill-rule="evenodd">
        <g id="03_ico-/-20px-/-user-role" transform="translate(0.000000, -2.000000)" fill="#FFFFFF">
            <path d="M7,2 C9.209139,2 11,3.790861 11,6 C11,7.40190344 10.2788062,8.63536303 9.18718963,9.3496077 C11.9823338,10.267337 14,12.8980429 14,16 C14,19 0,19 0,16 C0,12.8980429 2.01766623,10.267337 4.81220162,9.34867931 C3.72119382,8.63536303 3,7.40190344 3,6 C3,3.790861 4.790861,2 7,2 Z M7,10 C3.6862915,10 1,12.6862915 1,16 C1,16.4883124 3.66590659,17.25 7,17.25 C10.3340934,17.25 13,16.4883124 13,16 C13,12.6862915 10.3137085,10 7,10 Z M19.5,9 C19.7761424,9 20,9.22385763 20,9.5 C20,9.77614237 19.7761424,10 19.5,10 L16.5,10 C16.2238576,10 16,9.77614237 16,9.5 C16,9.22385763 16.2238576,9 16.5,9 L19.5,9 Z M7,3 C5.34314575,3 4,4.34314575 4,6 C4,7.65685425 5.34314575,9 7,9 C8.65685425,9 10,7.65685425 10,6 C10,4.34314575 8.65685425,3 7,3 Z M19.5,6 C19.7761424,6 20,6.22385763 20,6.5 C20,6.77614237 19.7761424,7 19.5,7 L14.5,7 C14.2238576,7 14,6.77614237 14,6.5 C14,6.22385763 14.2238576,6 14.5,6 L19.5,6 Z" id="user-role"></path>
        </g>
    </g>
</svg>