<?xml version="1.0" encoding="UTF-8"?>
<svg width="20px" height="20px" viewBox="0 0 20 20" version="1.1" xmlns="http://www.w3.org/2000/svg" xmlns:xlink="http://www.w3.org/1999/xlink">
    <title>28D51BA3-A9D4-4044-A330-85BEA3AF9769</title>
    <g id="Design-system" stroke="none" stroke-width="1" fill="none" fill-rule="evenodd">
        <g id="Components_01" transform="translate(-134.000000, -5991.000000)">
            <g id="Group-7" transform="translate(126.000000, 5706.000000)">
                <g id="01_Components/Alerts/icon/error" transform="translate(0.000000, 271.000000)">
                    <g id="Group" transform="translate(8.000000, 12.000000)" fill="#FFFFFF">
                        <g id="➰-ICO" transform="translate(0.000000, 2.000000)">
                            <path d="M11.3654854,0.322850394 C11.9564835,0.618349444 12.4356968,1.09756269 12.7311958,1.68856079 L19.6771496,15.5804683 C20.4314106,17.0889904 19.8199613,18.9233385 18.3114392,19.6775995 C17.8873995,19.8896193 17.4198196,20 16.9457288,20 L3.05382128,20 C1.36724236,20 7.46069873e-14,18.6327576 7.46069873e-14,16.9461787 C7.46069873e-14,16.4720879 0.11038065,16.004508 0.322400491,15.5804683 L7.26835426,1.68856079 C8.02261528,0.180038741 9.8569634,-0.43141063 11.3654854,0.322850394 Z M8.16278145,2.13577438 L1.21682768,16.0276819 C1.07423556,16.3128662 1,16.627333 1,16.9461787 C1,18.0804729 1.91952711,19 3.05382128,19 L16.9457288,19 C17.2645745,19 17.5790414,18.9257644 17.8642256,18.7831723 C18.8787692,18.2759005 19.2899942,17.0422255 18.7827224,16.0276819 L11.8367686,2.13577438 C11.6380333,1.73830369 11.3157425,1.41601293 10.9182718,1.21727758 C9.9037283,0.71000581 8.67005322,1.12123083 8.16278145,2.13577438 Z M10,15 C10.2761424,15 10.5,15.2238576 10.5,15.5 C10.5,15.7761424 10.2761424,16 10,16 C9.72385763,16 9.5,15.7761424 9.5,15.5 C9.5,15.2238576 9.72385763,15 10,15 Z M10,5.99978094 C10.2761424,5.99978094 10.5,6.22363857 10.5,6.49978094 L10.5,13.4997809 C10.5,13.7759233 10.2761424,13.9997809 10,13.9997809 C9.72385763,13.9997809 9.5,13.7759233 9.5,13.4997809 L9.5,6.49978094 C9.5,6.22363857 9.72385763,5.99978094 10,5.99978094 Z" id="warning-2"></path>
                        </g>
                    </g>
                </g>
            </g>
        </g>
    </g>
</svg>